<svg xmlns="http://www.w3.org/2000/svg" width="70" height="63" viewBox="0 0 70 63">
  <g fill="none" fill-rule="evenodd" transform="translate(0 1)">
    <polygon fill="#D8D8D8" points="17.021 27 12 34.691 20.042 45.815 24.889 37.77"/>
    <polygon fill="#D8D8D8" points="51.021 27 46 34.691 54.042 45.815 58.889 37.77" transform="matrix(-1 0 0 1 104.89 0)"/>
    <polygon fill="#D8D8D8" points="27 34.034 35.256 21 43.513 34.034"/>
    <path stroke="#39434E" stroke-width="2" d="M13.7311724,45.5620058 L51.8785477,3.62099922" stroke-linecap="round" transform="rotate(-11 32.805 24.592)"/>
    <path stroke="#39434E" stroke-width="2" d="M18.7311724,45.5620058 L56.8785477,3.62099922" stroke-linecap="round" transform="scale(-1 1) rotate(-11 0 417.21)"/>
    <polyline stroke="#39434E" stroke-width="2" points="46 37.607 53.66 27 67.34 49.112" stroke-linecap="round"/>
    <polyline stroke="#39434E" stroke-width="2" points="2 37.607 9.66 27 24.523 49.185" stroke-linecap="round" transform="matrix(-1 0 0 1 26.523 0)"/>
    <path fill="#444747" d="M18.7138672 13.1552734L18.7138672 17.8378906 19.6074219 17.8232422C20.2552116 17.8232422 20.8069639 17.5953799 21.2626953 17.1396484 21.7184268 16.683917 21.9462891 16.1337923 21.9462891 15.4892578 21.9462891 14.8479786 21.7184268 14.2994814 21.2626953 13.84375 20.8069639 13.3847633 20.2568392 13.1552734 19.6123047 13.1552734L18.7138672 13.1552734zM18.1425781 19L18.1328125 19C17.9765617 19 17.8414719 18.944662 17.7275391 18.8339844 17.6136062 18.7200515 17.5566406 18.5833341 17.5566406 18.4238281L17.5566406 12.5791016C17.5566406 12.4195956 17.6136062 12.2828782 17.7275391 12.1689453 17.8382167 12.0582677 17.9733065 12.0029297 18.1328125 12.0029297L19.6123047 12.0029297C20.5758512 12.0029297 21.3994106 12.3430956 22.0830078 13.0234375 22.7633498 13.7070347 23.1035156 14.5289666 23.1035156 15.4892578 23.1035156 16.4528043 22.7633498 17.2747362 22.0830078 17.9550781 21.3994106 18.6386753 20.5758512 18.9804688 19.6123047 18.9804688L18.1425781 19zM49.7470703 12.1689453C49.6331375 12.2796229 49.5761719 12.4147127 49.5761719 12.5742188L49.5761719 18.4238281C49.5761719 18.5833341 49.6331375 18.7184239 49.7470703 18.8291016 49.8577479 18.9430344 49.9928377 19 50.1523438 19L53.3115234 19C53.4710294 19 53.6077468 18.9430344 53.7216797 18.8291016 53.8323573 18.7184239 53.8876953 18.5833341 53.8876953 18.4238281 53.8876953 18.2643221 53.8323573 18.1292323 53.7216797 18.0185547 53.6077468 17.9046218 53.4710294 17.8476562 53.3115234 17.8476562L50.7285156 17.8476562 50.7285156 12.5742188C50.7285156 12.4147127 50.67155 12.2796229 50.5576172 12.1689453 50.4469396 12.0550125 50.3118498 11.9980469 50.1523438 11.9980469 49.9928377 11.9980469 49.8577479 12.0550125 49.7470703 12.1689453zM1.69433594 57.9228516L3.18847656 57.9228516C3.46517065 57.9163411 3.7011709 57.8268238 3.89648438 57.6542969 4.09179785 57.4785147 4.18945312 57.2701835 4.18945312 57.0292969 4.18945312 56.785155 4.08854268 56.5751962 3.88671875 56.3994141 3.68489482 56.2236319 3.44075664 56.1357422 3.15429688 56.1357422L1.69433594 56.1357422 1.69433594 57.9228516zM1.11816406 54.9833984L3.15429688 54.9833984C3.75976865 54.9833984 4.27571401 55.1835917 4.70214844 55.5839844 5.13183809 55.984377 5.34667969 56.466143 5.34667969 57.0292969 5.34667969 57.5826851 5.13997603 58.0579407 4.7265625 58.4550781 4.3164042 58.8489603 3.8183623 59.055664 3.23242188 59.0751953L3.21289062 59.0751953C3.17708315 59.0784505 3.1575521 59.0800781 3.15429688 59.0800781L3.125 59.0751953 1.69433594 59.0751953 1.69433594 61.4238281C1.69433594 61.5833341 1.63899795 61.7184239 1.52832031 61.8291016 1.41438745 61.9430344 1.27767007 62 1.11816406 62 .958658057 62 .823568262 61.9430344.712890625 61.8291016.598957764 61.7184239.541992188 61.5833341.541992188 61.4238281L.541992188 55.5595703C.541992188 55.4000643.598957764 55.2649745.712890625 55.1542969.823568262 55.040364.958658057 54.9833984 1.11816406 54.9833984zM12.6708984 57.9082031L14.1552734 57.9082031C14.4287123 57.8984375 14.663085 57.8089201 14.8583984 57.6396484 15.0504567 57.4671215 15.1464844 57.2620455 15.1464844 57.0244141 15.1464844 56.777017 15.0455739 56.5670582 14.84375 56.3945312 14.6419261 56.2220043 14.3994155 56.1357422 14.1162109 56.1357422L12.6708984 56.1357422 12.6708984 57.9082031zM15.6542969 55.5839844C16.0807313 55.9811218 16.2939453 56.4612602 16.2939453 57.0244141 16.2939453 57.4541037 16.1604831 57.8430972 15.8935547 58.1914062 15.6363919 58.5364601 15.2978537 58.7822258 14.8779297 58.9287109L15.9863281 61.1748047C16.0546878 61.3147793 16.0628258 61.4596347 16.0107422 61.609375 15.9619138 61.7591153 15.8658861 61.8697913 15.7226562 61.9414062 15.6412756 61.9804689 15.5566411 62 15.46875 62 15.2311186 62 15.0602219 61.8925792 14.9560547 61.6777344L13.6621094 59.0556641 12.6708984 59.0556641 12.6708984 61.3847656C12.6708984 61.5410164 12.6139329 61.6761062 12.5 61.7900391 12.3893224 61.9007167 12.2542326 61.9560547 12.0947266 61.9560547 11.9384758 61.9560547 11.803386 61.9007167 11.6894531 61.7900391 11.5787755 61.6761062 11.5234375 61.5410164 11.5234375 61.3847656L11.5234375 55.5644531C11.5234375 55.4049471 11.5787755 55.2698573 11.6894531 55.1591797 11.803386 55.0452468 11.9384758 54.9882812 12.0947266 54.9882812L14.1162109 54.9882812C14.7184275 54.9882812 15.2311177 55.186847 15.6542969 55.5839844zM23.5107422 61.8291016C23.624675 61.7184239 23.6816406 61.5833341 23.6816406 61.4238281L23.6816406 55.5986328C23.6816406 55.4391268 23.624675 55.304037 23.5107422 55.1933594 23.4000646 55.0794265 23.2649748 55.0224609 23.1054688 55.0224609 22.9459627 55.0224609 22.8108729 55.0794265 22.7001953 55.1933594 22.5862625 55.304037 22.5292969 55.4391268 22.5292969 55.5986328L22.5292969 61.4238281C22.5292969 61.5833341 22.5862625 61.7184239 22.7001953 61.8291016 22.8108729 61.9430344 22.9459627 62 23.1054688 62 23.2649748 62 23.4000646 61.9430344 23.5107422 61.8291016zM34.9121094 61.8193359L34.9121094 61.8242188 34.9169922 61.8291016C34.9300131 61.8421225 34.9446614 61.8551432 34.9609375 61.8681641 34.9641927 61.8714193 34.9707031 61.8763021 34.9804688 61.8828125 34.9934896 61.8925782 35.0048828 61.9007161 35.0146484 61.9072266 35.0179037 61.9104818 35.024414 61.9153646 35.0341797 61.921875 35.0439454 61.9251302 35.0553385 61.930013 35.0683594 61.9365234 35.0748698 61.9430339 35.0813802 61.9462891 35.0878906 61.9462891 35.0976563 61.9527995 35.110677 61.9576823 35.1269531 61.9609375 35.1367188 61.9674479 35.1432292 61.9707031 35.1464844 61.9707031 35.15625 61.9739583 35.1692708 61.9772135 35.1855469 61.9804688 35.201823 61.9869792 35.2083333 61.9886068 35.2050781 61.9853516 35.218099 61.9886068 35.2343749 61.991862 35.2539062 61.9951172 35.2669271 61.9983724 35.2701823 61.9983724 35.2636719 61.9951172 35.2864584 61.9983724 35.3076171 62 35.3271484 62 35.3531902 62 35.3808592 61.9983724 35.4101562 61.9951172L35.4248047 61.9902344C35.4541017 61.9869792 35.4817707 61.9804688 35.5078125 61.9707031L35.5175781 61.9658203C35.5436199 61.9560546 35.5696613 61.9446615 35.5957031 61.9316406L35.6005859 61.9316406C35.6233725 61.9186197 35.6477863 61.9023438 35.6738281 61.8828125L35.6787109 61.8779297C35.6917318 61.868164 35.6933594 61.8665364 35.6835938 61.8730469 35.6901042 61.8697917 35.6982421 61.8632813 35.7080078 61.8535156 35.7210287 61.84375 35.7275391 61.8372396 35.7275391 61.8339844 35.7307943 61.8339844 35.7373046 61.827474 35.7470703 61.8144531L35.7666016 61.7949219 35.78125 61.7753906C35.7910157 61.7623697 35.797526 61.7526042 35.8007812 61.7460938L35.8154297 61.7314453 35.8300781 61.7021484 35.8447266 61.6777344 35.8544922 61.6533203C35.8577474 61.6468099 35.8610026 61.6370443 35.8642578 61.6240234 35.8707683 61.6110025 35.8740234 61.6028646 35.8740234 61.5996094 35.8772787 61.5963542 35.8805338 61.5865886 35.8837891 61.5703125L35.8886719 61.5458984C35.8919271 61.539388 35.8935547 61.5296225 35.8935547 61.5166016 35.8968099 61.5035807 35.8984375 61.4938151 35.8984375 61.4873047L35.8984375 61.4628906C35.9016927 61.4498697 35.9033203 61.4401042 35.9033203 61.4335938L35.9033203 55.5742188C35.9033203 55.4147127 35.8463547 55.2796229 35.7324219 55.1689453 35.6217442 55.0550125 35.4866544 54.9980469 35.3271484 54.9980469 35.1676424 54.9980469 35.030925 55.0550125 34.9169922 55.1689453 34.8063146 55.2796229 34.7509766 55.4147127 34.7509766 55.5742188L34.7509766 59.7441406 31.2402344 55.2226562C31.1653642 55.1249995 31.0693365 55.0582684 30.9521484 55.0224609 30.8317051 54.9866535 30.7145188 54.9899086 30.6005859 55.0322266 30.4833979 55.0712893 30.3889978 55.1412755 30.3173828 55.2421875 30.2457679 55.3398442 30.2099609 55.4505202 30.2099609 55.5742188L30.2099609 61.4238281C30.2099609 61.5833341 30.2669265 61.7184239 30.3808594 61.8291016 30.491537 61.9430344 30.6266268 62 30.7861328 62 30.9456388 62 31.0807286 61.9430344 31.1914062 61.8291016 31.3053391 61.7184239 31.3623047 61.5833341 31.3623047 61.4238281L31.3623047 57.2587891 34.8730469 61.7753906 34.8730469 61.7802734 34.8779297 61.7802734C34.8876954 61.7932943 34.8990885 61.806315 34.9121094 61.8193359zM47.2460938 61.5800781C47.278646 61.7005214 47.3453771 61.7998043 47.4462891 61.8779297 47.5504562 61.9593103 47.6676426 62 47.7978516 62L47.8027344 62C47.9622404 62 48.0973302 61.9430344 48.2080078 61.8291016 48.3219407 61.7184239 48.3789062 61.5833341 48.3789062 61.4238281L48.3935547 58.328125C48.3935547 58.168619 48.3365891 58.0319016 48.2226562 57.9179688 48.1087234 57.8040359 47.972006 57.7470703 47.8125 57.7470703L45.3222656 57.7470703C45.1595044 57.7470703 45.022787 57.8040359 44.9121094 57.9179688 44.7981765 58.0319016 44.7412109 58.168619 44.7412109 58.328125 44.7412109 58.487631 44.7981765 58.6243484 44.9121094 58.7382812 45.022787 58.8489589 45.1595044 58.9042969 45.3222656 58.9042969L47.2314453 58.9042969 47.2265625 60.1835938C47.2102864 60.1966146 47.1988933 60.2063802 47.1923828 60.2128906 46.746417 60.6197937 46.2223337 60.8232422 45.6201172 60.8232422 44.9755827 60.8232422 44.4238304 60.5953799 43.9648438 60.1396484 43.5091123 59.6806618 43.28125 59.1289095 43.28125 58.484375 43.28125 57.8430958 43.5091123 57.292971 43.9648438 56.8339844 44.4238304 56.3782529 44.9755827 56.1503906 45.6201172 56.1503906 46.1474636 56.1503906 46.6210917 56.3115218 47.0410156 56.6337891 47.1679694 56.7314458 47.3111971 56.7688803 47.4707031 56.7460938 47.6269539 56.7265624 47.7539058 56.6533209 47.8515625 56.5263672 47.9492192 56.3994134 47.9882813 56.2578133 47.96875 56.1015625 47.9459634 55.9420565 47.8710944 55.8134771 47.7441406 55.7158203 47.1191375 55.2340471 46.4111368 54.9931641 45.6201172 54.9931641 44.6565707 54.9931641 43.8330112 55.3349575 43.1494141 56.0185547 42.4658169 56.6988966 42.1240234 57.5208285 42.1240234 58.484375 42.1240234 59.4479215 42.4658169 60.271481 43.1494141 60.9550781 43.8330112 61.6386753 44.6565707 61.9804688 45.6201172 61.9804688 46.1930367 61.9804688 46.7350235 61.8470065 47.2460938 61.5800781zM55 55.1689453C54.8860671 55.2796229 54.8291016 55.4147127 54.8291016 55.5742188L54.8291016 61.4238281C54.8291016 61.5833341 54.8860671 61.7184239 55 61.8291016 55.1106776 61.9430344 55.2457674 62 55.4052734 62L58.5644531 62C58.7239591 62 58.8606765 61.9430344 58.9746094 61.8291016 59.085287 61.7184239 59.140625 61.5833341 59.140625 61.4238281 59.140625 61.2643221 59.085287 61.1292323 58.9746094 61.0185547 58.8606765 60.9046218 58.7239591 60.8476562 58.5644531 60.8476562L55.9814453 60.8476562 55.9814453 55.5742188C55.9814453 55.4147127 55.9244797 55.2796229 55.8105469 55.1689453 55.6998692 55.0550125 55.5647794 54.9980469 55.4052734 54.9980469 55.2457674 54.9980469 55.1106776 55.0550125 55 55.1689453zM66.2255859 60.8427734L66.2255859 59.0703125 68.3544922 59.0703125C68.5139982 59.0703125 68.6507156 59.0149745 68.7646484 58.9042969 68.8785813 58.790364 68.9355469 58.6536466 68.9355469 58.4941406 68.9355469 58.3346346 68.8785813 58.1979172 68.7646484 58.0839844 68.6507156 57.9733067 68.5139982 57.9179688 68.3544922 57.9179688L66.2255859 57.9179688 66.2255859 56.1455078 69.1748047 56.1552734 69.1796875 56.1552734C69.3391935 56.1552734 69.4742833 56.0983079 69.5849609 55.984375 69.6988938 55.8736974 69.7558594 55.7386076 69.7558594 55.5791016 69.7558594 55.4195956 69.7005214 55.2828782 69.5898438 55.1689453 69.4759109 55.0550125 69.3391935 54.9980469 69.1796875 54.9980469L65.6494141 54.9882812 65.6445312 54.9882812C65.4850252 54.9882812 65.3499354 55.0452468 65.2392578 55.1591797 65.125325 55.2698573 65.0683594 55.4065747 65.0683594 55.5693359L65.0683594 61.4238281C65.0683594 61.5833341 65.125325 61.7184239 65.2392578 61.8291016 65.3499354 61.9430344 65.4850252 62 65.6445312 62L69.1796875 62C69.3391935 62 69.4742833 61.9430344 69.5849609 61.8291016 69.6988938 61.7184239 69.7558594 61.5833341 69.7558594 61.4238281 69.7558594 61.2643221 69.6988938 61.1276047 69.5849609 61.0136719 69.4742833 60.899739 69.3391935 60.8427734 69.1796875 60.8427734L66.2255859 60.8427734z"/>
  </g>
</svg>
